<svg xmlns="http://www.w3.org/2000/svg" xmlns:xlink="http://www.w3.org/1999/xlink" width="19" height="19" viewBox="0 0 19 19"><defs><style>.a{fill:#fff;}.b{filter:url(#e);}.c{filter:url(#c);}.d{filter:url(#a);}</style><filter id="a" x="0" y="0" width="12.6" height="19" filterUnits="userSpaceOnUse"><feOffset input="SourceAlpha"/><feGaussianBlur stdDeviation="0.5" result="b"/><feFlood flood-color="#fff" flood-opacity="0.302"/><feComposite operator="in" in2="b"/><feComposite in="SourceGraphic"/></filter><filter id="c" x="11.2" y="4.8" width="4.6" height="9.4" filterUnits="userSpaceOnUse"><feOffset input="SourceAlpha"/><feGaussianBlur stdDeviation="0.5" result="d"/><feFlood flood-color="#fff" flood-opacity="0.302"/><feComposite operator="in" in2="d"/><feComposite in="SourceGraphic"/></filter><filter id="e" x="13.6" y="3.2" width="5.4" height="12.6" filterUnits="userSpaceOnUse"><feOffset input="SourceAlpha"/><feGaussianBlur stdDeviation="0.5" result="f"/><feFlood flood-color="#fff" flood-opacity="0.302"/><feComposite operator="in" in2="f"/><feComposite in="SourceGraphic"/></filter></defs><g transform="translate(1.5 -13.49)"><g class="d" transform="matrix(1, 0, 0, 1, -1.5, 13.49)"><path class="a" d="M9.3,16.047a.5.5,0,0,0-.564.069L3.546,20.562H1.067A1.109,1.109,0,0,0,0,21.705v4.571a1.108,1.108,0,0,0,1.067,1.143H3.546l5.187,4.447a.516.516,0,0,0,.334.125.507.507,0,0,0,.231-.057.575.575,0,0,0,.3-.514V16.562A.578.578,0,0,0,9.3,16.047Z" transform="translate(1.5 -14.49)"/></g><g class="c" transform="matrix(1, 0, 0, 1, -1.5, 13.49)"><path class="a" d="M342.339,122.378a.3.3,0,0,0-.488,0,.52.52,0,0,0,0,.616,4.137,4.137,0,0,1,0,4.912.519.519,0,0,0,0,.615.3.3,0,0,0,.488,0,5.171,5.171,0,0,0,0-6.149Z" transform="translate(-329.05 -115.95)"/></g><g class="b" transform="matrix(1, 0, 0, 1, -1.5, 13.49)"><path class="a" d="M387.57,77.262a.377.377,0,0,0-.583,0,.522.522,0,0,0,0,.667,6.212,6.212,0,0,1,0,7.987.524.524,0,0,0,0,.668.378.378,0,0,0,.583,0,7.255,7.255,0,0,0,0-9.326Z" transform="translate(-371.77 -72.42)"/></g></g></svg>