<svg xmlns="http://www.w3.org/2000/svg" xmlns:xlink="http://www.w3.org/1999/xlink" width="63" height="63.001" viewBox="0 0 63 63.001"><defs><style>.a{fill:#259ffc;}.b{filter:url(#e);}.c{filter:url(#c);}.d{filter:url(#a);}</style><filter id="a" x="0" y="0" width="39" height="63.001" filterUnits="userSpaceOnUse"><feOffset input="SourceAlpha"/><feGaussianBlur stdDeviation="0.5" result="b"/><feFlood flood-color="#fff" flood-opacity="0.302"/><feComposite operator="in" in2="b"/><feComposite in="SourceGraphic"/></filter><filter id="c" x="42.001" y="18" width="9.002" height="27" filterUnits="userSpaceOnUse"><feOffset input="SourceAlpha"/><feGaussianBlur stdDeviation="0.5" result="d"/><feFlood flood-color="#fff" flood-opacity="0.302"/><feComposite operator="in" in2="d"/><feComposite in="SourceGraphic"/></filter><filter id="e" x="51.001" y="12" width="11.999" height="39.001" filterUnits="userSpaceOnUse"><feOffset input="SourceAlpha"/><feGaussianBlur stdDeviation="0.5" result="f"/><feFlood flood-color="#fff" flood-opacity="0.302"/><feComposite operator="in" in2="f"/><feComposite in="SourceGraphic"/></filter></defs><g transform="translate(1.5 -13.49)"><g class="d" transform="matrix(1, 0, 0, 1, -1.5, 13.49)"><path class="a" d="M34.868,16.2a1.887,1.887,0,0,0-2.116.257L13.3,33.135H4a4.157,4.157,0,0,0-4,4.285V54.563a4.154,4.154,0,0,0,4,4.286h9.3L32.748,75.524A1.936,1.936,0,0,0,34,75.991a1.9,1.9,0,0,0,.868-.214A2.156,2.156,0,0,0,36,73.848V18.136A2.168,2.168,0,0,0,34.868,16.2Z" transform="translate(1.5 -14.49)"/></g><g class="c" transform="matrix(1, 0, 0, 1, -1.5, 13.49)"><path class="a" d="M343.953,122.722a1.117,1.117,0,0,0-1.829.013,1.95,1.95,0,0,0,.011,2.309,15.513,15.513,0,0,1,0,18.421,1.945,1.945,0,0,0-.011,2.306,1.114,1.114,0,0,0,1.829.01,19.39,19.39,0,0,0,0-23.058Z" transform="translate(-298.25 -102.75)"/></g><g class="b" transform="matrix(1, 0, 0, 1, -1.5, 13.49)"><path class="a" d="M389.5,77.638a1.413,1.413,0,0,0-2.188.011,1.958,1.958,0,0,0,.009,2.5,23.3,23.3,0,0,1,0,29.952,1.963,1.963,0,0,0-.009,2.5,1.416,1.416,0,0,0,2.188.007,27.2,27.2,0,0,0,0-34.974Z" transform="translate(-334.37 -63.62)"/></g></g></svg>