<svg xmlns="http://www.w3.org/2000/svg" xmlns:xlink="http://www.w3.org/1999/xlink" width="83" height="83.001" viewBox="0 0 83 83.001"><defs><style>.a{fill:#259ffc;}.b{filter:url(#e);}.c{filter:url(#c);}.d{filter:url(#a);}</style><filter id="a" x="0" y="0" width="51.001" height="83.001" filterUnits="userSpaceOnUse"><feOffset input="SourceAlpha"/><feGaussianBlur stdDeviation="0.5" result="b"/><feFlood flood-color="#fff" flood-opacity="0.302"/><feComposite operator="in" in2="b"/><feComposite in="SourceGraphic"/></filter><filter id="c" x="56.001" y="24" width="11.002" height="35" filterUnits="userSpaceOnUse"><feOffset input="SourceAlpha"/><feGaussianBlur stdDeviation="0.5" result="d"/><feFlood flood-color="#fff" flood-opacity="0.302"/><feComposite operator="in" in2="d"/><feComposite in="SourceGraphic"/></filter><filter id="e" x="68.001" y="16" width="14.999" height="51.001" filterUnits="userSpaceOnUse"><feOffset input="SourceAlpha"/><feGaussianBlur stdDeviation="0.5" result="f"/><feFlood flood-color="#fff" flood-opacity="0.302"/><feComposite operator="in" in2="f"/><feComposite in="SourceGraphic"/></filter></defs><g transform="translate(1.5 -13.49)"><g class="d" transform="matrix(1, 0, 0, 1, -1.5, 13.49)"><path class="a" d="M46.491,16.274a2.516,2.516,0,0,0-2.821.343L17.728,38.85H5.333A5.543,5.543,0,0,0,0,44.564V67.421a5.539,5.539,0,0,0,5.333,5.714H17.728L43.665,95.368a2.581,2.581,0,0,0,1.669.623,2.535,2.535,0,0,0,1.157-.286A2.875,2.875,0,0,0,48,93.134V18.851A2.89,2.89,0,0,0,46.491,16.274Z" transform="translate(1.5 -14.49)"/></g><g class="c" transform="matrix(1, 0, 0, 1, -1.5, 13.49)"><path class="a" d="M344.687,122.878a1.489,1.489,0,0,0-2.438.018,2.6,2.6,0,0,0,.015,3.079,20.684,20.684,0,0,1,0,24.561,2.593,2.593,0,0,0-.015,3.074,1.485,1.485,0,0,0,2.438.013,25.853,25.853,0,0,0,0-30.744Z" transform="translate(-284.25 -96.75)"/></g><g class="b" transform="matrix(1, 0, 0, 1, -1.5, 13.49)"><path class="a" d="M390.38,77.81a1.883,1.883,0,0,0-2.917.014,2.611,2.611,0,0,0,.012,3.334,31.062,31.062,0,0,1,0,39.936,2.618,2.618,0,0,0-.012,3.339,1.888,1.888,0,0,0,2.917.009,36.273,36.273,0,0,0,0-46.632Z" transform="translate(-317.37 -59.62)"/></g></g></svg>